<?xml version="1.0" encoding="utf-8"?>
<!-- Generator: Adobe Illustrator 19.1.0, SVG Export Plug-In . SVG Version: 6.00 Build 0)  -->
<svg version="1.1" id="Layer_1" xmlns="http://www.w3.org/2000/svg" xmlns:xlink="http://www.w3.org/1999/xlink" x="0px" y="0px"
	 viewBox="0 0 14.2 21" style="enable-background:new 0 0 14.2 21;" xml:space="preserve">
<style type="text/css">
	.st0{fill:#AE1F23;}
</style>
<g>
	<path class="st0" d="M12.9,21c-0.5,0-0.9-0.2-1.1-0.6H9.9c-5.4,0-9.9-4.4-9.9-9.9c0-5.4,4.4-9.9,9.9-9.9h1.9C12,0.2,12.4,0,12.9,0
		c0.7,0,1.3,0.6,1.3,1.3c0,0.7-0.6,1.3-1.3,1.3c-0.5,0-0.9-0.2-1.1-0.6H9.9C5.5,2,1.8,5.5,1.4,9.8h5.9C7.6,9.4,8,9.2,8.5,9.2
		c0.7,0,1.3,0.6,1.3,1.3c0,0.7-0.6,1.3-1.3,1.3c-0.5,0-0.9-0.2-1.1-0.6H1.4c0.4,4.3,4,7.8,8.4,7.8h1.9c0.2-0.4,0.7-0.6,1.1-0.6
		c0.7,0,1.3,0.6,1.3,1.3C14.2,20.4,13.6,21,12.9,21z M12.5,19.7L12.5,19.7c0.1,0.4,0.7,0.3,0.7,0C13.2,19.3,12.6,19.3,12.5,19.7
		L12.5,19.7z M8.2,10.5L8.2,10.5c0.1,0.4,0.7,0.3,0.7,0C8.8,10.2,8.3,10.1,8.2,10.5L8.2,10.5z M12.5,1.3L12.5,1.3
		c0.1,0.4,0.7,0.3,0.7,0C13.2,1,12.6,0.9,12.5,1.3L12.5,1.3z"/>
</g>
</svg>
