<?xml version="1.0" encoding="utf-8"?>
<!-- Generator: Adobe Illustrator 19.1.0, SVG Export Plug-In . SVG Version: 6.00 Build 0)  -->
<svg version="1.1" id="Layer_1" xmlns="http://www.w3.org/2000/svg" xmlns:xlink="http://www.w3.org/1999/xlink" x="0px" y="0px"
	 viewBox="0 0 23.7 21.1" style="enable-background:new 0 0 23.7 21.1;" xml:space="preserve">
<style type="text/css">
	.st0{fill:#AE1F23;}
</style>
<g>
	<g>
		<path class="st0" d="M18.5,21.1h-4.3v-6.5c0-0.2-0.2-0.4-0.4-0.4H9.9c-0.2,0-0.4,0.2-0.4,0.4v6.5H5.1c-0.8,0-1.4-0.6-1.4-1.4V11
			H1.1c-0.7,0-1-0.3-1-0.5s-0.1-0.6,0.4-1.1l10.2-9c0.7-0.6,1.7-0.6,2.4,0l10.2,9c0.5,0.5,0.5,0.9,0.4,1.1c-0.1,0.2-0.3,0.5-1,0.5
			H20v8.7C20,20.5,19.3,21.1,18.5,21.1z M15.2,20.1h3.3c0.2,0,0.4-0.2,0.4-0.4V10h3.5L12.4,1.2c-0.3-0.3-0.8-0.3-1.1,0L1.3,10h3.5
			v9.7c0,0.2,0.2,0.4,0.4,0.4h3.3v-5.5c0-0.8,0.6-1.4,1.4-1.4h3.9c0.8,0,1.4,0.6,1.4,1.4V20.1z"/>
	</g>
</g>
</svg>
