<?xml version="1.0" encoding="utf-8"?>
<!-- Generator: Adobe Illustrator 19.1.0, SVG Export Plug-In . SVG Version: 6.00 Build 0)  -->
<svg version="1.1" id="Layer_1" xmlns="http://www.w3.org/2000/svg" xmlns:xlink="http://www.w3.org/1999/xlink" x="0px" y="0px"
	 viewBox="0 0 21.9 22.9" style="enable-background:new 0 0 21.9 22.9;" xml:space="preserve">
<style type="text/css">
	.st0{fill:#AE1F23;}
</style>
<g>
	<g>
		<path class="st0" d="M19.8,22.9c-0.1,0-0.2,0-0.2,0l-17.3,0c-0.2,0-1.5,0-2.1-0.8c-0.5-0.7,0-2,0.1-2.1l0.5-1.1
			c0.1-0.1,1.3-3,2.8-4.7c0.9-1,2-1.2,3.3-0.6c0.4,0.2,0.7,0.6,1.1,0.9c0.1,0.1,0.2,0.2,0.3,0.3c0.4,0.4,1.2,0.8,2.4,0.8h0.9
			c1.3,0,2-0.5,2.4-0.8c0.1-0.1,0.2-0.2,0.3-0.4c0.3-0.3,0.6-0.7,1-0.9c1.1-0.6,2.2-0.4,3.1,0.6c1.5,1.7,2.7,4.6,2.7,4.8l0.5,1
			c0.1,0.2,0.6,1.4,0.1,2.1C21.1,22.8,20.2,22.9,19.8,22.9z M5.5,14.3c-0.7,0-1,0.4-1.2,0.6c-1.4,1.6-2.7,4.4-2.7,4.4l-0.5,1.1
			c-0.2,0.5-0.3,1-0.2,1.1c0.3,0.4,1,0.4,1.2,0.4l0,0h17.3c0.1,0,0.9,0,1.2-0.4c0.1-0.1,0-0.6-0.2-1.1l-0.5-1c0-0.1-1.2-2.9-2.6-4.5
			c-0.5-0.6-1.2-0.7-1.9-0.4c-0.2,0.1-0.5,0.4-0.7,0.7c-0.1,0.2-0.3,0.3-0.4,0.4c-0.5,0.5-1.5,1.1-3.1,1.1h-0.9
			c-1.6,0-2.6-0.6-3.1-1.1c-0.1-0.1-0.2-0.2-0.4-0.4c-0.2-0.3-0.6-0.6-0.8-0.7C6.1,14.4,5.8,14.3,5.5,14.3z M10.9,14
			c-3.3,0-6-3.2-6-7.1C4.9,3,7.5,0,10.9,0c3.4,0,6,3,6,6.9C16.9,10.8,14.2,14,10.9,14z M10.9,1c-2.8,0-5,2.6-5,5.9
			c0,3.4,2.3,6.1,5,6.1c2.8,0,5-2.7,5-6.1C15.9,3.6,13.7,1,10.9,1z"/>
	</g>
</g>
</svg>
