<?xml version="1.0" encoding="utf-8"?>
<!-- Generator: Adobe Illustrator 19.1.0, SVG Export Plug-In . SVG Version: 6.00 Build 0)  -->
<svg version="1.1" id="Capa_1" xmlns="http://www.w3.org/2000/svg" xmlns:xlink="http://www.w3.org/1999/xlink" x="0px" y="0px"
	 viewBox="-430 232.2 97.8 97.8" style="enable-background:new -430 232.2 97.8 97.8;" xml:space="preserve">
<style type="text/css">
	.st0{fill:#FFFFFF;}
</style>
<g>
	<path class="st0" d="M-334.2,282.2l-8.6-1.9c-0.1-5-1.2-9.8-3.2-14.4l6.7-5.4c1.1-0.9,1.2-2.4,0.4-3.5l-9.1-11.3
		c-0.4-0.5-1-0.8-1.7-0.9c-0.7-0.1-1.3,0.1-1.8,0.5l-6.5,5.3c-4-3-8.4-5.2-13.2-6.4v-8.3c0-1.4-1.1-2.5-2.5-2.5h-14.5
		c-1.4,0-2.5,1.1-2.5,2.5v8.3c-4.9,1.3-9.4,3.5-13.5,6.6l-6.6-5.2c-0.5-0.4-1.2-0.6-1.8-0.5c-0.7,0.1-1.3,0.4-1.7,0.9l-9,11.4
		c-0.4,0.5-0.6,1.2-0.5,1.8c0.1,0.7,0.4,1.3,0.9,1.7l6.8,5.4c-1.9,4.6-3,9.4-3.1,14.4l-8.6,2c-0.6,0.1-1.2,0.5-1.6,1.1
		c-0.4,0.6-0.5,1.2-0.3,1.9l3.3,14.2c0.3,1.3,1.6,2.2,3,1.9l8.9-2.1c2.3,4.2,5.4,8,9.1,11.1l-4,8.4c-0.3,0.6-0.3,1.3-0.1,1.9
		s0.7,1.1,1.3,1.4l13.1,6.3c0.3,0.2,0.7,0.2,1.1,0.2c0.3,0,0.6,0,0.8-0.1c0.6-0.2,1.1-0.7,1.4-1.3l4-8.5c4.7,0.9,9.5,0.8,14.1-0.1
		l4.1,8.4c0.6,1.2,2.1,1.8,3.3,1.2l13.1-6.4c0.6-0.3,1.1-0.8,1.3-1.4s0.2-1.3-0.1-1.9l-4.1-8.3c3.7-3.1,6.7-6.9,9-11.2l8.9,2
		c1.4,0.3,2.7-0.6,3-1.9l3.1-14.2C-332,283.8-332.8,282.5-334.2,282.2z M-364.7,281.3c0,9.1-7.4,16.4-16.4,16.4
		c-9.1,0-16.4-7.4-16.4-16.4c0-9.1,7.4-16.4,16.4-16.4C-372.1,264.8-364.7,272.2-364.7,281.3z"/>
</g>
</svg>
