<?xml version="1.0" encoding="utf-8"?>
<!-- Generator: Adobe Illustrator 19.1.0, SVG Export Plug-In . SVG Version: 6.00 Build 0)  -->
<svg version="1.1" id="Layer_1" xmlns="http://www.w3.org/2000/svg" xmlns:xlink="http://www.w3.org/1999/xlink" x="0px" y="0px"
	 viewBox="0 0 21.9 22.9" style="enable-background:new 0 0 21.9 22.9;" xml:space="preserve">
<style type="text/css">
	.st0{fill:#AE1F23;}
</style>
<g>
	<g>
		<path class="st0" d="M10.4,22.8c-0.1,0-0.3,0-0.4-0.1c-0.7-0.2-1.1-0.8-1.1-1.5l0.5-6.1H6.8c-0.5,0-1.1-0.3-1.4-0.7
			c-0.3-0.4-0.4-1-0.3-1.5L8.6,1.4c0.2-0.7,0.9-1.2,1.6-1.2h4c0.6,0,1.1,0.3,1.4,0.8C16,1.4,16,2,15.8,2.5l-2.9,6.8h2.2
			c0.6,0,1.1,0.3,1.5,0.8l0,0c0.3,0.5,0.3,1.1,0.1,1.7l-5,10.1C11.5,22.4,11,22.8,10.4,22.8z M10.3,1.2c-0.3,0-0.6,0.2-0.7,0.5
			L6.2,13.2c-0.1,0.2,0,0.4,0.1,0.6c0.1,0.2,0.3,0.3,0.6,0.3h3.7L10,21.2c0,0.2,0.1,0.4,0.3,0.5c0.2,0.1,0.4,0,0.5-0.2l5-10.1
			c0.1-0.2,0.1-0.5,0-0.7l0,0c-0.1-0.2-0.4-0.3-0.6-0.3h-3.7l3.4-8.2c0.1-0.2,0.1-0.5-0.1-0.7c-0.1-0.2-0.4-0.3-0.6-0.3H10.3z"/>
	</g>
</g>
</svg>
